# xmcd CD database file
#
# Track frame offsets:
#	150
#	14607
#	30894
#	41627
#	68952
#	90620
#	102070
#	118515
#	132277
#	146802
#	169977
#	178940
#	190575
#	209852
#	219167
#	240130
#
# Disc length: 3440 seconds
#
# Revision: 0
# Processed by: cddbd v1.4PL0 Copyright (c) Steve Scherf et al.
# Submitted via: CDex 1.51
#
DISCID=df0d6e10
DTITLE=Brannan Lane - Caribbean Dream
DYEAR=1998
DGENRE=New Age
TTITLE0=Welcome
TTITLE1=Rain Forest
TTITLE2=Rainbow Sky
TTITLE3=Caribbean Sea
TTITLE4=Distant Past
TTITLE5=Rasta Pasta
TTITLE6=St. Tom Tom
TTITLE7=Safarirama
TTITLE8=Stars to Sea
TTITLE9=No Hurry, No Problem
TTITLE10=Volcano
TTITLE11=Fire Dance
TTITLE12=Market Sq.
TTITLE13=Rainbow Sky [Reprise]
TTITLE14=Bananas
TTITLE15=Until Then
EXTD=YEAR: 1998
EXTT0=
EXTT1=
EXTT2=
EXTT3=
EXTT4=
EXTT5=
EXTT6=
EXTT7=
EXTT8=
EXTT9=
EXTT10=
EXTT11=
EXTT12=
EXTT13=
EXTT14=
EXTT15=
PLAYORDER=
